<?xml version="1.0" encoding="UTF-8"?>
<svg width="41px" height="40px" viewBox="0 0 41 40" version="1.1" xmlns="http://www.w3.org/2000/svg" xmlns:xlink="http://www.w3.org/1999/xlink">
    <!-- Generator: sketchtool 51.3 (57544) - http://www.bohemiancoding.com/sketch -->
    <title>7277C6BD-A9A5-4511-B662-342B714E87B4</title>
    <desc>Created with sketchtool.</desc>
    <defs></defs>
    <g id="Page-1" stroke="none" stroke-width="1" fill="none" fill-rule="evenodd">
        <g id="Homepage" transform="translate(-1165.000000, -6812.000000)">
            <g id="Group-7" transform="translate(1099.000000, 6812.000000)">
                <g id="Group-21" transform="translate(66.000000, 0.000000)">
                    <circle id="Oval-7-Copy" fill="#FFFFFF" fill-rule="nonzero" cx="20.6666667" cy="20" r="20"></circle>
                    <path d="M28.3389872,16.6513076 C28.5939229,22.3324565 24.3577324,28.6666667 16.8581708,28.6666667 C14.577294,28.6666667 12.4541194,27.9976417 10.6666667,26.8516402 C12.8091912,27.1041572 14.9483296,26.5101134 16.6462887,25.178836 C14.8791534,25.1464248 13.3872714,23.9786546 12.8735299,22.374059 C13.5062736,22.4949962 14.1288587,22.4596825 14.6972638,22.3053666 C12.7545276,21.9144974 11.414059,20.164777 11.4575964,18.2936357 C12.0022978,18.5959788 12.6253666,18.7778685 13.287619,18.7981859 C11.4885563,17.5965533 10.9791686,15.2213454 12.0376115,13.4058352 C14.0292063,15.8497354 17.0052305,17.4577173 20.362449,17.6265457 C19.7737264,15.0994407 21.6903401,12.6666667 24.2972638,12.6666667 C25.459229,12.6666667 26.5089645,13.1567045 27.2452305,13.9418292 C28.1653212,13.760907 29.0297808,13.4247014 29.810068,12.9617536 C29.5086924,13.9050642 28.8682086,14.6969615 28.0342252,15.1961905 C28.8512774,15.0989569 29.6296296,14.8817536 30.3542857,14.5605442 C29.8129705,15.3708239 29.1279819,16.081935 28.3389872,16.6513076" id="Twitter" fill="#2C1F7B"></path>
                </g>
            </g>
        </g>
    </g>
</svg>