<?xml version="1.0" encoding="UTF-8"?>
<svg width="40px" height="40px" viewBox="0 0 40 40" version="1.1" xmlns="http://www.w3.org/2000/svg" xmlns:xlink="http://www.w3.org/1999/xlink">
    <!-- Generator: sketchtool 51.3 (57544) - http://www.bohemiancoding.com/sketch -->
    <title>2EC97986-F1A9-43CE-86A0-18029454EE3D</title>
    <desc>Created with sketchtool.</desc>
    <defs></defs>
    <g id="Page-1" stroke="none" stroke-width="1" fill="none" fill-rule="evenodd">
        <g id="Homepage" transform="translate(-1235.000000, -6812.000000)">
            <g id="Group-7" transform="translate(1099.000000, 6812.000000)">
                <g id="Group-22" transform="translate(136.000000, 0.000000)">
                    <circle id="Oval-7-Copy-2" fill="#FFFFFF" fill-rule="nonzero" cx="20" cy="20" r="20"></circle>
                    <path d="M28,28 L24.7125,28 L24.7125,22.4006507 C24.7125,20.8654628 24.1291667,20.0075484 22.9140625,20.0075484 C21.5921875,20.0075484 20.9015625,20.9003416 20.9015625,22.4006507 L20.9015625,28 L17.7333333,28 L17.7333333,17.3333333 L20.9015625,17.3333333 L20.9015625,18.7701318 C20.9015625,18.7701318 21.8541667,17.0074508 24.1177083,17.0074508 C26.3802083,17.0074508 28,18.3890678 28,21.2465268 L28,28 Z M13.9536458,15.9366195 C12.8744792,15.9366195 12,15.055279 12,13.9683097 C12,12.8813405 12.8744792,12 13.9536458,12 C15.0328125,12 15.9067708,12.8813405 15.9067708,13.9683097 C15.9067708,15.055279 15.0328125,15.9366195 13.9536458,15.9366195 Z M12.3177083,28 L15.6213542,28 L15.6213542,17.3333333 L12.3177083,17.3333333 L12.3177083,28 Z" id="Linkedin" fill="#2C1F7B"></path>
                </g>
            </g>
        </g>
    </g>
</svg>