<?xml version="1.0" encoding="UTF-8"?>
<svg width="250px" height="64px" viewBox="0 0 250 64" version="1.1" xmlns="http://www.w3.org/2000/svg" xmlns:xlink="http://www.w3.org/1999/xlink">
    <!-- Generator: sketchtool 51.3 (57544) - http://www.bohemiancoding.com/sketch -->
    <title>98916E38-5E28-43CD-9CFD-3A174A76FA1E</title>
    <desc>Created with sketchtool.</desc>
    <defs>
        <polygon id="path-1" points="0 0.253577048 44.2520551 0.253577048 44.2520551 44.0936698 0 44.0936698"></polygon>
    </defs>
    <g id="Page-1" stroke="none" stroke-width="1" fill="none" fill-rule="evenodd">
        <g id="Homepage" transform="translate(-164.000000, -6800.000000)">
            <g id="LogoOnDark" transform="translate(164.000000, 6800.000000)">
                <path d="M116.261205,12.1888674 C116.261205,12.6914528 116.175475,13.1415145 116.015403,13.5288762 C115.844614,13.9267426 115.609863,14.2510759 115.289382,14.5235422 C114.957851,14.8061849 114.530878,15.036304 114.018512,15.1935466 C113.495094,15.3609656 112.875565,15.4446751 112.160261,15.4446751 L109.917568,15.4446751 L109.917568,9.03777864 L111.829064,9.03777864 C112.42716,9.03777864 112.896997,9.05845982 113.227859,9.10047871 C113.54834,9.13199288 113.837006,9.18418823 114.082474,9.24721657 C114.862075,9.45632622 115.428023,9.80199727 115.748503,10.2835732 C116.090081,10.796335 116.261205,11.4351535 116.261205,12.1888674 M124.228007,29.3158341 C124.153328,29.0647055 124.014353,28.6773439 123.789983,28.1225632 L121.536909,22.9509565 C121.270009,22.312138 120.981677,21.7363479 120.704062,21.2235861 C120.404679,20.710496 120.094914,20.2394248 119.774434,19.8310537 C119.432856,19.4121778 119.069846,19.0563303 118.685068,18.7631829 C118.610725,18.7004828 118.535712,18.6482875 118.450317,18.5957639 C118.920154,18.3863259 119.347461,18.1663833 119.74262,17.90475 C120.436827,17.4546883 121.034588,16.920917 121.50476,16.303108 C121.985313,15.6852989 122.348659,14.9841086 122.594126,14.1988806 C122.839928,13.4346619 122.967517,12.5657243 122.967517,11.6445914 C122.967517,10.5452065 122.786012,9.55054046 122.444434,8.68160287 C122.102522,7.81266528 121.600871,7.04844665 120.949529,6.40995643 C120.308568,5.78197093 119.51825,5.25837613 118.589293,4.87101445 C117.691813,4.48365278 116.66708,4.21151478 115.534849,4.05460048 C115.150742,4.01258158 114.7231,3.98139569 114.263979,3.96038624 C113.794142,3.92887207 113.206762,3.91836735 112.490788,3.91836735 L105.549389,3.91836735 C104.962344,3.91836735 104.460358,4.08578638 104.054149,4.44196215 C103.61646,4.80831438 103.403141,5.37359981 103.403141,6.11680899 L103.403141,29.9753338 C103.403141,30.2267906 103.477485,30.4569097 103.627176,30.6558429 C103.787249,30.8547761 104.011619,31.0015139 104.321383,31.0957282 C104.56685,31.1794377 104.876615,31.2421377 105.272108,31.2841566 C106.029942,31.3678662 107.311529,31.3678662 108.03755,31.2841566 C108.422327,31.2421377 108.732091,31.1794377 108.967177,31.0957282 C109.276942,31.0015139 109.500976,30.8547761 109.661049,30.6663476 C109.832173,30.4674144 109.917568,30.2267906 109.917568,29.9753338 L109.917568,20.4908816 L111.081277,20.4908816 C111.583262,20.4908816 112.031667,20.5640864 112.416444,20.710496 C112.790506,20.8674103 113.110651,21.0768482 113.398983,21.3699957 C113.698031,21.6841525 113.975647,22.0820189 114.23183,22.5425854 C114.49873,23.0451708 114.776346,23.6311374 115.054296,24.2594511 L117.446346,30.1010622 C117.521359,30.3105001 117.61747,30.4884238 117.723962,30.6558429 C117.873318,30.8547761 118.097688,31.0116904 118.397071,31.1269141 C118.653255,31.2214566 118.962684,31.2736519 119.358178,31.3048378 C119.721188,31.336352 120.191025,31.3468567 120.789121,31.3468567 C121.494044,31.3468567 122.059992,31.336352 122.465867,31.3048378 C122.914606,31.2736519 123.256184,31.2214566 123.501651,31.1374188 C123.85428,31.0225234 124.07865,30.8652808 124.206909,30.6348334 C124.302685,30.4569097 124.34555,30.2478 124.34555,30.0173527 C124.34555,29.8289242 124.313401,29.5984768 124.228007,29.3158341" id="Fill-1" fill="#FFFFFF"></path>
                <path d="M140.426583,26.4330329 C139.622963,26.8802071 138.597219,27.1039611 137.360293,27.1039611 C136.123698,27.1039611 135.097955,26.9122673 134.294666,26.5181931 C133.512263,26.1241188 132.888329,25.5597243 132.422866,24.8143228 C131.936848,24.0582345 131.58775,23.1101185 131.386845,22.0237426 C131.175663,20.8949535 131.069574,19.6061971 131.069574,18.1791806 C131.069574,16.9755843 131.175663,15.8040482 131.397785,14.7283591 C131.608968,13.6740434 131.968343,12.7476349 132.476242,11.9698391 C132.9732,11.2030641 133.638574,10.5855697 134.442195,10.1273749 C135.245816,9.66951403 136.281837,9.44576 137.508485,9.44576 C138.734803,9.44576 139.749937,9.64814051 140.553558,10.0529015 C141.33563,10.4576626 141.970172,11.0327439 142.445912,11.7674586 C142.932262,12.5345676 143.281028,13.4609761 143.492542,14.5366653 C143.693447,15.6444148 143.809813,16.9011109 143.809813,18.2643408 C143.809813,19.4996634 143.693447,20.692573 143.482265,21.7896357 C143.270751,22.8546381 142.900436,23.7917334 142.3932,24.579882 C141.896241,25.3573438 141.240481,25.9858588 140.426583,26.4330329 M149.709331,11.7995189 C149.159659,10.031528 148.334821,8.54072501 147.256696,7.36918894 C146.1673,6.19765288 144.793121,5.31365745 143.18588,4.74926294 C141.600188,4.19522122 139.749937,3.91836735 137.688173,3.91836735 C135.53126,3.91836735 133.59647,4.25934178 131.947457,4.93026993 C130.287503,5.60119809 128.870889,6.59139319 127.750329,7.84842334 C126.618828,9.11580628 125.762495,10.6707299 125.191274,12.4600942 C124.630663,14.2277511 124.34555,16.2515563 124.34555,18.4560345 C124.34555,20.8415197 124.620385,22.950485 125.138562,24.7184759 C125.677956,26.5075063 126.491854,28.00933 127.57031,29.1808661 C128.648766,30.3524022 130.012667,31.2363976 131.619577,31.8114789 C133.216209,32.3651866 135.087678,32.6530612 137.201823,32.6530612 C139.348127,32.6530612 141.272639,32.3227735 142.921653,31.6621982 C144.581607,30.99127 145.998221,30.0010749 147.129721,28.733692 C148.250282,27.4556223 149.106947,25.8900119 149.677504,24.0792741 C150.238116,22.2902436 150.52356,20.2343782 150.52356,17.9768001 C150.52356,15.6230412 150.248393,13.5464702 149.709331,11.7995189" id="Fill-3" fill="#FFFFFF"></path>
                <path d="M173.961787,29.3148415 C174.043003,29.5543442 174.08377,29.7523506 174.08377,29.9193163 C174.08377,30.1692748 174.012427,30.3986485 173.890763,30.5966549 C173.748396,30.815246 173.535006,30.971756 173.220335,31.0864428 C172.976369,31.1798913 172.671571,31.242626 172.265492,31.2844492 C171.899862,31.3259455 171.422441,31.3468571 170.874315,31.3468571 C169.980304,31.3468571 169.350644,31.3154897 168.944246,31.242626 C168.487209,31.1593065 168.141962,31.0237081 167.908188,30.8361576 C167.684925,30.6489338 167.512301,30.4300159 167.39,30.1692748 L160.645908,19.3220562 L160.645908,29.9402279 C160.645908,30.2006422 160.574884,30.4401449 160.432518,30.6381512 C160.29047,30.8260285 160.07708,30.971756 159.782473,31.0864428 C159.549018,31.1697623 159.254412,31.242626 158.878908,31.2844492 C158.188415,31.3677687 156.968905,31.3677687 156.248155,31.2844492 C155.872334,31.242626 155.577727,31.1697623 155.33408,31.0864428 C155.049666,30.9822118 154.836275,30.8361576 154.693909,30.6489338 C154.541669,30.4509274 154.450262,30.211098 154.450262,29.9402279 L154.450262,5.30706291 C154.450262,5.04664863 154.541669,4.79636339 154.693909,4.59835705 C154.846467,4.41080649 155.059539,4.27553483 155.354145,4.17130377 C155.587919,4.08765753 155.882525,4.02524959 156.248155,3.98375321 C156.968905,3.90043371 158.188415,3.90043371 158.878908,3.98375321 C159.244539,4.02524959 159.538826,4.08765753 159.772282,4.17130377 C160.066888,4.27553483 160.29047,4.42126227 160.432518,4.60881283 C160.574884,4.80681917 160.645908,5.04664863 160.645908,5.30706291 L160.645908,14.7682371 L167.186801,5.03619285 C167.278846,4.84864229 167.430767,4.65063595 167.613582,4.49445273 C167.796716,4.33794277 168.030171,4.21280015 168.304394,4.12948065 C168.548359,4.04616115 168.842965,3.99420899 169.218469,3.96284165 C169.89877,3.90043371 171.15841,3.90043371 171.879797,3.98375321 C172.255619,4.02524959 172.560417,4.09844005 172.803746,4.18175955 C173.108544,4.29644639 173.321934,4.44217383 173.464301,4.62972439 C173.61654,4.83818651 173.687564,5.05677767 173.687564,5.30706291 C173.687564,5.61942935 173.606348,5.93212253 173.45379,6.24481571 C173.332126,6.51568577 173.09867,6.90124267 172.763297,7.45343857 L165.958055,16.5816615 L173.383085,28.0957629 C173.819739,28.9188289 173.921338,29.1792431 173.961787,29.3148415" id="Fill-5" fill="#FFFFFF"></path>
                <path d="M189.182063,20.144281 L183.269024,20.144281 L186.230559,11.1715671 L189.182063,20.144281 Z M198.934223,29.8045391 C198.892803,29.4921378 198.779222,29.085624 198.613865,28.5647374 L190.605877,5.3983521 C190.513329,5.07516709 190.389069,4.8251807 190.234715,4.62715227 C190.059003,4.38729605 189.780388,4.21018152 189.408902,4.10593883 C189.099222,4.02261004 188.70735,3.9703253 188.201896,3.94941141 C187.727183,3.92882429 187.097468,3.91836735 186.292366,3.91836735 C185.611523,3.91836735 185.05397,3.92882429 184.631356,3.94941141 C184.166675,3.9703253 183.815899,4.02261004 183.526605,4.11639578 C183.196539,4.22063847 182.938635,4.38729605 182.763246,4.61636855 C182.628955,4.80426681 182.505018,5.0333393 182.402115,5.31469652 L174.424869,28.5124526 C174.249481,29.0228824 174.146254,29.4297229 174.104834,29.7421242 C174.022318,30.2947085 174.197706,30.6280237 174.362739,30.8155952 C174.579547,31.0760385 174.930647,31.2325659 175.415391,31.2845239 C175.776846,31.3263517 176.282624,31.3469388 176.912015,31.3469388 C177.499985,31.3469388 177.974698,31.3364818 178.346508,31.3054378 C178.748736,31.2740669 179.058416,31.222109 179.305965,31.1283232 C179.594935,31.0136236 179.822098,30.8466392 179.966421,30.6280237 C180.090358,30.4509091 180.183229,30.2424238 180.245359,30.0234814 L181.772724,25.2714527 L190.750848,25.2714527 L192.370761,30.159095 C192.432567,30.3777105 192.535794,30.5757389 192.649699,30.7322664 C192.794022,30.9407517 193.020862,31.0864954 193.330541,31.1802812 C193.568059,31.253153 193.898126,31.2949808 194.321387,31.3158947 C194.713583,31.3364818 195.249779,31.3469388 195.941623,31.3469388 C196.601756,31.3469388 197.138599,31.3364818 197.530795,31.2949808 C198.025894,31.253153 198.387025,31.1178663 198.613865,30.888467 C198.810287,30.7113525 199.01674,30.3777105 198.934223,29.8045391 Z" id="Fill-7" fill="#FFFFFF"></path>
                <path d="M209.962063,26.0483386 L207.76251,26.0483386 L207.76251,9.16455181 L209.880314,9.16455181 C211.398095,9.16455181 212.630074,9.37454424 213.536335,9.784969 C214.442916,10.1947344 215.186319,10.7624063 215.756644,11.4774354 C216.337188,12.202684 216.765092,13.085839 217.019599,14.074155 C217.294543,15.1043376 217.426746,16.2291322 217.426746,17.4277703 C217.426746,18.8891462 217.274106,20.1820666 216.968506,21.2755437 C216.662906,22.3373735 216.214885,23.2310776 215.613903,23.935228 C215.02346,24.6397081 214.26952,25.1651837 213.373796,25.512314 C212.467215,25.8696637 211.316346,26.0483386 209.962063,26.0483386 M222.936165,11.5298511 C222.345403,9.87925131 221.469797,8.46007172 220.339045,7.33527711 C219.198714,6.19993343 217.793019,5.33754694 216.133455,4.76987511 C214.503909,4.20220327 212.497551,3.91836735 210.176015,3.91836735 L203.627811,3.91836735 C203.067705,3.91836735 202.589027,4.08649315 202.192099,4.44417256 C201.784632,4.81207139 201.570681,5.37974322 201.570681,6.12608994 L201.570681,29.1286671 C201.570681,29.8750138 201.784632,30.4532347 202.192099,30.8214632 C202.589027,31.1682639 203.067705,31.3469388 203.627811,31.3469388 L209.727993,31.3469388 C212.029412,31.3469388 214.045669,31.0736519 215.726308,30.5587254 C217.436965,30.0223712 218.903333,29.1814125 220.104976,28.0460688 C221.296719,26.9103955 222.233637,25.417702 222.875173,23.6306236 C223.496272,21.8643137 223.82199,19.7090068 223.82199,17.2385464 C223.82199,15.0937886 223.526928,13.180451 222.936165,11.5298511" id="Fill-9" fill="#FFFFFF"></path>
                <path d="M240.237678,20.144281 L234.32355,20.144281 L237.275598,11.1715671 L240.237678,20.144281 Z M249.98128,29.8045391 C249.940176,29.4921378 249.836931,29.085624 249.66151,28.5647374 L241.662079,5.3983521 C241.558834,5.07516709 241.434874,4.8251807 241.290525,4.62715227 C241.105071,4.38729605 240.826081,4.21018152 240.454527,4.10593883 C240.155147,4.02261004 239.762878,3.9703253 239.24665,3.94941141 C238.78253,3.92882429 238.142343,3.91836735 237.347449,3.91836735 C236.656448,3.91836735 236.098792,3.92882429 235.686133,3.94941141 C235.22169,3.9703253 234.860168,4.02261004 234.581502,4.11639578 C234.241342,4.22063847 233.983066,4.38729605 233.817679,4.61636855 C233.673329,4.80426681 233.559727,5.0333393 233.456481,5.31469652 L225.467731,28.5124526 C225.302344,29.0228824 225.189065,29.4297229 225.147637,29.7421242 C225.075462,30.2947085 225.250559,30.6280237 225.405913,30.8155952 C225.632795,31.0760385 225.973278,31.2325659 226.458759,31.2845239 C226.82999,31.3263517 227.335862,31.3469388 227.965368,31.3469388 C228.553448,31.3469388 229.028572,31.3364818 229.389769,31.3054378 C229.792719,31.2740669 230.112489,31.222109 230.35976,31.1283232 C230.649107,31.0136236 230.865955,30.8466392 231.020662,30.6280237 C231.13394,30.4509091 231.226829,30.2424238 231.289294,30.0234814 L232.816617,25.2714527 L241.796072,25.2714527 L243.416931,30.159095 C243.489106,30.3777105 243.581995,30.5757389 243.695597,30.7322664 C243.850304,30.9407517 244.077185,31.0864954 244.386922,31.1802812 C244.624484,31.253153 244.944578,31.2949808 245.37795,31.3158947 C245.759862,31.3364818 246.296804,31.3469388 246.998486,31.3469388 C247.659387,31.3469388 248.185325,31.3364818 248.577917,31.2949808 C249.083464,31.253153 249.434305,31.1178663 249.671543,30.888467 C249.857644,30.7113525 250.063812,30.3777105 249.98128,29.8045391 Z" id="Fill-11" fill="#FFFFFF"></path>
                <path d="M110.957356,49.1399253 C110.982162,48.3148204 110.811697,47.6663016 110.449141,47.1946799 C110.086902,46.723369 109.527166,46.4880245 108.77025,46.4880245 C108.387975,46.4880245 108.055314,46.5576641 107.771947,46.6981868 C107.488899,46.8383987 107.253873,47.0271096 107.06687,47.2643195 C106.879867,47.502462 106.736117,47.7835076 106.636891,48.1059016 C106.537029,48.4292283 106.479465,48.7740065 106.463563,49.1399253 L110.957356,49.1399253 Z M113.874346,49.9811965 C113.874346,50.339343 113.792929,50.604844 113.629461,50.7761449 C113.46631,50.9474459 113.240508,51.0326301 112.953961,51.0326301 L106.463563,51.0326301 C106.463563,51.4772043 106.516993,51.8798082 106.625124,52.242929 C106.731982,52.6051171 106.903402,52.9128992 107.138109,53.1656537 C107.373771,53.4193408 107.677174,53.6120932 108.047363,53.743911 C108.41787,53.8763506 108.861525,53.9431922 109.379599,53.9431922 C109.905306,53.9431922 110.367725,53.9055744 110.765901,53.8318932 C111.165349,53.758212 111.508823,53.6758259 111.800141,53.5859784 C112.09114,53.4967526 112.33189,53.4152992 112.523346,53.3409962 C112.714165,53.267315 112.87,53.2296972 112.989899,53.2296972 C113.061138,53.2296972 113.121564,53.2443091 113.168951,53.2713566 C113.216655,53.2984041 113.257045,53.3469032 113.288849,53.4165428 C113.320652,53.487115 113.342278,53.5859784 113.354363,53.7146873 C113.36613,53.8433962 113.372173,54.0050595 113.372173,54.1996773 C113.372173,54.3712892 113.368039,54.517408 113.360406,54.6383446 C113.352137,54.7583486 113.34037,54.8618753 113.324468,54.9473704 C113.308885,55.0334872 113.284714,55.1049921 113.253229,55.1640614 C113.220472,55.2221981 113.17881,55.279402 113.127288,55.3334971 C113.074813,55.387903 112.934243,55.4612733 112.702398,55.5551624 C112.471824,55.6490515 112.176691,55.7401426 111.817951,55.830301 C111.459528,55.9192158 111.049585,55.9978713 110.586849,56.0637802 C110.125384,56.1293782 109.631162,56.1632653 109.105137,56.1632653 C108.15613,56.1632653 107.32543,56.0460594 106.612084,55.8128911 C105.899057,55.5784792 105.304019,55.2240634 104.825381,54.748711 C104.34706,54.2742912 103.990546,53.6739606 103.755521,52.9498953 C103.520813,52.2245864 103.403141,51.3764756 103.403141,50.4024539 C103.403141,49.4747549 103.527174,48.6403233 103.773649,47.8957392 C104.020442,47.1520878 104.3795,46.5209789 104.849233,46.0027235 C105.319602,45.484779 105.891106,45.0899474 106.56438,44.8166741 C107.238289,44.5437118 107.996796,44.4081633 108.841807,44.4081633 C109.733887,44.4081633 110.4978,44.5359395 111.130683,44.7936682 C111.764521,45.0501533 112.284503,45.4064345 112.69063,45.8625117 C113.097711,46.3185889 113.395707,46.857674 113.587163,47.4813214 C113.779254,48.1037253 113.874346,48.7817788 113.874346,49.514549 L113.874346,49.9811965 Z" id="Fill-13" fill="#FFFFFF"></path>
                <path d="M124.34555,53.8447041 C124.34555,54.0474965 124.339196,54.2172688 124.326823,54.3540213 C124.31445,54.4907737 124.29773,54.605409 124.276997,54.6994847 C124.254927,54.7926259 124.229846,54.8692571 124.200753,54.9275093 C124.17166,54.986696 124.107121,55.0602121 124.006131,55.1505497 C123.906479,55.2399528 123.734261,55.3496039 123.490482,55.4776341 C123.24804,55.6065988 122.971154,55.7218571 122.661831,55.8240321 C122.351171,55.9246494 122.013759,56.0062648 121.64926,56.0691896 C121.285095,56.1314914 120.910229,56.1632653 120.524663,56.1632653 C119.661235,56.1632653 118.89679,56.0383502 118.231328,55.787897 C117.564863,55.5386898 117.005742,55.1698632 116.552626,54.6820402 C116.100847,54.1942172 115.759088,53.5983005 115.529019,52.8961594 C115.297612,52.1937067 115.183246,51.3903251 115.183246,50.4841455 C115.183246,49.4384099 115.323695,48.5353455 115.60359,47.773706 C115.884823,47.0130012 116.276743,46.382507 116.779685,45.8828467 C117.281624,45.3841208 117.877195,45.0124906 118.563724,44.7710712 C119.251257,44.5293402 120.005001,44.4081633 120.826963,44.4081633 C121.161031,44.4081633 121.490084,44.4352645 121.813117,44.4897786 C122.135816,44.5449157 122.436778,44.6187433 122.718011,44.7118845 C122.998241,44.8059602 123.25038,44.9115617 123.472089,45.0280661 C123.693799,45.145505 123.850968,45.2473684 123.943598,45.3327219 C124.035224,45.4190098 124.101101,45.4909684 124.138554,45.5492206 C124.176007,45.6084073 124.205101,45.6837924 124.226168,45.7778682 C124.246901,45.8710093 124.263621,45.9865792 124.276997,46.1233316 C124.28937,46.260084 124.295724,46.4261183 124.295724,46.6211229 C124.295724,47.0731224 124.253255,47.3914846 124.169988,47.5746518 C124.085384,47.7581306 123.977038,47.8503373 123.842608,47.8503373 C123.699818,47.8503373 123.549002,47.7961347 123.39083,47.686172 C123.231319,47.5765209 123.042716,47.4562784 122.82502,47.3232641 C122.606655,47.1905613 122.347158,47.0693843 122.045193,46.9606677 C121.74423,46.8510165 121.384078,46.796814 120.964403,46.796814 C120.143778,46.796814 119.514432,47.0905669 119.079039,47.6805649 C118.643647,48.2693168 118.426285,49.1337542 118.426285,50.2735654 C118.426285,50.8352161 118.480458,51.3311383 118.589473,51.7610207 C118.69782,52.189657 118.859337,52.5485154 119.072686,52.8379072 C119.286369,53.1269875 119.555229,53.3431747 119.877928,53.4877149 C120.199958,53.632255 120.574823,53.7042136 121.002859,53.7042136 C121.438251,53.7042136 121.813117,53.6437809 122.127456,53.5226039 C122.442129,53.4014269 122.716005,53.267478 122.950087,53.1191998 C123.184503,52.97061 123.38247,52.8357266 123.54198,52.7145496 C123.699818,52.5943072 123.834582,52.5332514 123.943598,52.5332514 C124.018504,52.5332514 124.081037,52.552565 124.132201,52.5921266 C124.182361,52.6310652 124.221821,52.7027123 124.250914,52.8086253 C124.280341,52.9132923 124.304084,53.0481757 124.320804,53.2123409 C124.337524,53.3761947 124.34555,53.5867747 124.34555,53.8447041" id="Fill-15" fill="#FFFFFF"></path>
                <path d="M134.243707,50.2967509 C134.243707,49.782848 134.199772,49.3093609 134.11387,48.8775332 C134.028295,48.444462 133.882064,48.0689056 133.676817,47.7496204 C133.470913,47.4300244 133.198452,47.1813116 132.857137,47.0019274 C132.515823,46.8228542 132.087294,46.7330066 131.569585,46.7330066 C131.108925,46.7330066 130.706626,46.8132165 130.361377,46.9730145 C130.016128,47.1328126 129.733503,47.3659809 129.510878,47.673763 C129.289565,47.9818561 129.123006,48.3518164 129.012841,48.7833332 C128.901364,49.2160936 128.846282,49.7091668 128.846282,50.2619311 C128.846282,50.7761449 128.8912,51.249632 128.981037,51.6814597 C129.072186,52.1142201 129.218088,52.4897765 129.419074,52.8093725 C129.620059,53.1289685 129.893832,53.375816 130.23777,53.5508477 C130.583019,53.7261903 131.011219,53.8141724 131.520404,53.8141724 C131.988277,53.8141724 132.39451,53.7339625 132.739759,53.5741645 C133.085008,53.4152992 133.368617,53.1830636 133.590259,52.8790121 C133.8119,52.5762042 133.976491,52.2071765 134.083706,51.7753488 C134.189608,51.3425885 134.243707,50.8507588 134.243707,50.2967509 M137.434555,50.1798559 C137.434555,51.0683825 137.311931,51.8788755 137.065043,52.6107131 C136.818812,53.3428616 136.445366,53.9742813 135.94405,54.5037288 C135.442406,55.0331763 134.814532,55.441998 134.059115,55.7305049 C133.302387,56.0190119 132.420084,56.1632653 131.408928,56.1632653 C130.430886,56.1632653 129.58137,56.0345564 128.858413,55.7768277 C128.135456,55.5203426 127.535123,55.1466515 127.059381,54.6557545 C126.582655,54.1648575 126.229209,53.5607962 125.999371,52.8441923 C125.769533,52.1278993 125.65445,51.309634 125.65445,50.39064 C125.65445,49.5027351 125.780025,48.6903768 126.029863,47.953565 C126.280357,47.2179967 126.655771,46.586577 127.157414,46.0608602 C127.65873,45.5351434 128.285621,45.1284979 129.037103,44.839991 C129.788585,44.5524167 130.669905,44.4081633 131.67975,44.4081633 C132.665988,44.4081633 133.52075,44.5340741 134.243707,44.7877613 C134.966664,45.0405157 135.564047,45.4132741 136.036838,45.9029275 C136.508645,46.3938245 136.859796,46.9981967 137.090617,47.7144897 C137.320456,48.4310936 137.434555,49.2530896 137.434555,50.1798559" id="Fill-17" fill="#FFFFFF"></path>
                <path d="M147.905759,52.5516438 C147.905759,53.1442022 147.795921,53.6658774 147.577166,54.1182239 C147.357491,54.5693268 147.047613,54.9470595 146.648147,55.2511109 C146.248988,55.5551624 145.776194,55.7827346 145.23038,55.9344495 C144.683952,56.0867861 144.092424,56.1632653 143.453953,56.1632653 C143.069828,56.1632653 142.70319,56.1331089 142.353427,56.0749722 C142.002744,56.0168356 141.690105,55.9422218 141.413056,55.8533069 C141.136314,55.7634594 140.9059,55.6723683 140.721508,55.5781683 C140.536808,55.4855228 140.402119,55.3972297 140.31836,55.3160872 C140.233067,55.233701 140.168023,55.1046812 140.121388,54.9296496 C140.075674,54.754307 140.052356,54.4959565 140.052356,54.1530437 C140.052356,53.9276477 140.060333,53.7454655 140.075674,53.609917 C140.090707,53.4734358 140.113718,53.3640022 140.145319,53.2828596 C140.176,53.2004735 140.214045,53.1460675 140.259759,53.11902 C140.306701,53.0919725 140.364074,53.0773606 140.4328,53.0773606 C140.517786,53.0773606 140.642044,53.1267923 140.807414,53.2237903 C140.972478,53.3214101 141.178961,53.4289784 141.424715,53.5449408 C141.67139,53.6621467 141.956723,53.7715803 142.283782,53.8723091 C142.610227,53.9739704 142.98116,54.0243348 143.396887,54.0243348 C143.657675,54.0243348 143.89085,53.9972873 144.094265,53.9431922 C144.297679,53.8878536 144.474402,53.8104417 144.624738,53.7087804 C144.774768,53.6080516 144.888288,53.4790319 144.964683,53.3232754 C145.042306,53.167519 145.08035,52.9884458 145.08035,52.7860557 C145.08035,52.5516438 145.008864,52.3511191 144.867425,52.1835488 C144.725065,52.0162894 144.536991,51.8701706 144.301668,51.7461251 C144.067572,51.6211469 143.801875,51.5039409 143.506724,51.3957508 C143.210346,51.2863172 142.906605,51.1653806 142.594886,51.0326301 C142.283782,50.9008123 141.98004,50.7487865 141.684583,50.5774855 C141.388511,50.4061846 141.122814,50.1960222 140.888719,49.9463767 C140.653396,49.6973529 140.465322,49.3973431 140.323882,49.0466579 C140.181523,48.6962837 140.110036,48.2750263 140.110036,47.7841293 C140.110036,47.2863927 140.206374,46.8284502 140.398437,46.4112344 C140.5905,45.9949513 140.867856,45.6386701 141.228664,45.3423909 C141.589778,45.0461117 142.030664,44.8166741 142.549172,44.6528345 C143.067987,44.4893058 143.650004,44.4081633 144.295838,44.4081633 C144.618909,44.4081633 144.932468,44.4311692 145.23621,44.4778029 C145.539951,44.5241256 145.814239,44.5831949 146.060607,44.6528345 C146.306361,44.7224741 146.513764,44.7989533 146.682816,44.8804068 C146.851868,44.9627929 146.973365,45.0324325 147.046693,45.0915018 C147.119406,45.1496385 147.17095,45.2077751 147.201631,45.2668444 C147.233233,45.324981 147.256243,45.3946206 147.271584,45.4770067 C147.286618,45.5581493 147.29981,45.6601216 147.311469,45.7810582 C147.323128,45.9019948 147.32865,46.0509117 147.32865,46.2302958 C147.32865,46.4413908 147.323128,46.6126918 147.311469,46.7441987 C147.29981,46.8769492 147.281095,46.9823413 147.254096,47.0597532 C147.227403,47.1384086 147.190279,47.1906383 147.144565,47.2176858 C147.098237,47.2450442 147.043931,47.2584125 146.982876,47.2584125 C146.914151,47.2584125 146.806154,47.2176858 146.659806,47.1365432 C146.513764,47.0541571 146.331213,46.9671076 146.112151,46.8729076 C145.893396,46.7802621 145.639357,46.691969 145.350956,46.6108265 C145.063169,46.5284403 144.734576,46.4877136 144.365791,46.4877136 C144.103776,46.4877136 143.87735,46.5147611 143.685287,46.5691671 C143.492304,46.6241948 143.334911,46.7016066 143.212187,46.803268 C143.089157,46.9039967 142.9965,47.023068 142.935445,47.1595492 C142.87439,47.2963413 142.843709,47.4415274 142.843709,47.5972838 C142.843709,47.8394679 142.916116,48.041858 143.062464,48.2053867 C143.208505,48.3689154 143.400568,48.5131689 143.638652,48.6372144 C143.87735,48.7621926 144.147956,48.8790877 144.451698,48.9875886 C144.755439,49.0970223 145.063169,49.2160936 145.374581,49.3451134 C145.685379,49.4728896 145.993109,49.6227391 146.29685,49.7940401 C146.600591,49.9656519 146.870891,50.176747 147.109895,50.4254598 C147.347979,50.6751053 147.540042,50.9723172 147.686084,51.3192716 C147.832432,51.6656043 147.905759,52.077224 147.905759,52.5516438" id="Fill-19" fill="#FFFFFF"></path>
                <path d="M157.114323,55.8004608 L155.740733,59.5275027 C155.663896,59.723927 155.456402,59.864499 155.116898,59.9514152 C154.777393,60.0386452 154.281845,60.0816327 153.628222,60.0816327 C153.288717,60.0816327 153.017925,60.0678265 152.814493,60.0405279 C152.611061,60.0119742 152.458064,59.9671041 152.35584,59.9046625 C152.254971,59.8409658 152.19912,59.7628353 152.191335,59.6680747 C152.182195,59.5742554 152.208259,59.4600406 152.267495,59.3260579 L153.781219,55.8004608 C153.670533,55.7533942 153.571356,55.6802842 153.482671,55.5823858 C153.39331,55.4838599 153.327643,55.3803135 153.284994,55.2698641 L149.378827,45.5992603 C149.269156,45.3237642 149.21466,45.1135337 149.21466,44.968255 C149.21466,44.8223488 149.265433,44.7090753 149.366303,44.6259244 C149.468527,44.5440287 149.640479,44.4862937 149.881822,44.454916 C150.123165,44.4238521 150.443714,44.4081633 150.842116,44.4081633 C151.207008,44.4081633 151.495739,44.4138112 151.707633,44.4257348 C151.919528,44.4373445 152.085049,44.4668395 152.204197,44.5135923 C152.32233,44.5616002 152.411691,44.6337688 152.470927,44.7326086 C152.529824,44.8301932 152.590075,44.9701377 152.649311,45.1508732 L155.32033,52.1917128 L155.359256,52.1917128 L157.801795,45.009046 C157.852568,44.805091 157.917897,44.6689119 157.998796,44.6023912 C158.079018,44.5361842 158.212721,44.4862937 158.399567,44.454916 C158.586075,44.4238521 158.912717,44.4081633 159.378816,44.4081633 C159.743708,44.4081633 160.046994,44.4238521 160.288676,44.454916 C160.530019,44.4862937 160.708064,44.5459113 160.82315,44.6318862 C160.937898,44.7188024 160.994764,44.8342723 160.994764,44.9798648 C160.994764,45.1254572 160.960915,45.2964656 160.892541,45.49289 L157.114323,55.8004608 Z" id="Fill-21" fill="#FFFFFF"></path>
                <path d="M168.848168,52.5516438 C168.848168,53.1442022 168.73833,53.6658774 168.519575,54.1182239 C168.299592,54.5693268 167.990021,54.9470595 167.590555,55.2511109 C167.191396,55.5551624 166.718296,55.7827346 166.172482,55.9344495 C165.626054,56.0867861 165.034525,56.1632653 164.396361,56.1632653 C164.012236,56.1632653 163.645292,56.1331089 163.295529,56.0749722 C162.945152,56.0168356 162.632514,55.9422218 162.355465,55.8533069 C162.078416,55.7634594 161.848002,55.6723683 161.663609,55.5781683 C161.47891,55.4855228 161.344527,55.3972297 161.260461,55.3160872 C161.175168,55.233701 161.110125,55.1046812 161.06349,54.9296496 C161.017775,54.754307 160.994764,54.4959565 160.994764,54.1530437 C160.994764,53.9276477 161.002435,53.7454655 161.017775,53.609917 C161.032809,53.4734358 161.056126,53.3640022 161.087421,53.2828596 C161.118102,53.2004735 161.156453,53.1460675 161.202168,53.11902 C161.248803,53.0919725 161.306176,53.0773606 161.375208,53.0773606 C161.460194,53.0773606 161.584145,53.1267923 161.749516,53.2237903 C161.914886,53.3214101 162.121369,53.4289784 162.366817,53.5449408 C162.613491,53.6621467 162.898824,53.7715803 163.225883,53.8723091 C163.552635,53.9739704 163.923261,54.0243348 164.338988,54.0243348 C164.599776,54.0243348 164.832951,53.9972873 165.036366,53.9431922 C165.240088,53.8878536 165.41681,53.8104417 165.56684,53.7087804 C165.71687,53.6080516 165.830696,53.4790319 165.907092,53.3232754 C165.984408,53.167519 166.022759,52.9884458 166.022759,52.7860557 C166.022759,52.5516438 165.950965,52.3511191 165.809526,52.1835488 C165.667166,52.0162894 165.479092,51.8701706 165.243769,51.7461251 C165.009674,51.6211469 164.744283,51.5039409 164.448826,51.3957508 C164.152448,51.2863172 163.848707,51.1653806 163.537295,51.0326301 C163.225883,50.9008123 162.922142,50.7487865 162.626991,50.5774855 C162.330613,50.4061846 162.064916,50.1960222 161.83082,49.9463767 C161.595804,49.6973529 161.407423,49.3973431 161.265984,49.0466579 C161.123624,48.6962837 161.052138,48.2750263 161.052138,47.7841293 C161.052138,47.2863927 161.148476,46.8284502 161.340539,46.4112344 C161.532601,45.9949513 161.809957,45.6386701 162.170765,45.3423909 C162.532187,45.0461117 162.972765,44.8166741 163.49158,44.6528345 C164.010088,44.4893058 164.592106,44.4081633 165.23794,44.4081633 C165.56101,44.4081633 165.87457,44.4311692 166.178311,44.4778029 C166.482053,44.5241256 166.756647,44.5831949 167.003015,44.6528345 C167.248463,44.7224741 167.455866,44.7989533 167.625225,44.8804068 C167.79397,44.9627929 167.915467,45.0324325 167.989101,45.0915018 C168.061815,45.1496385 168.113052,45.2077751 168.143733,45.2668444 C168.175334,45.324981 168.198345,45.3946206 168.213685,45.4770067 C168.228719,45.5581493 168.242219,45.6601216 168.253878,45.7810582 C168.265229,45.9019948 168.270752,46.0509117 168.270752,46.2302958 C168.270752,46.4413908 168.265229,46.6126918 168.253878,46.7441987 C168.242219,46.8769492 168.223197,46.9823413 168.196504,47.0597532 C168.169505,47.1384086 168.132381,47.1906383 168.086666,47.2176858 C168.040645,47.2450442 167.986033,47.2584125 167.924978,47.2584125 C167.856252,47.2584125 167.748255,47.2176858 167.601907,47.1365432 C167.455866,47.0541571 167.273314,46.9671076 167.054559,46.8729076 C166.835497,46.7802621 166.581459,46.691969 166.293058,46.6108265 C166.005271,46.5284403 165.676678,46.4877136 165.307893,46.4877136 C165.045877,46.4877136 164.819452,46.5147611 164.627389,46.5691671 C164.434406,46.6241948 164.277013,46.7016066 164.154596,46.803268 C164.031258,46.9039967 163.938602,47.023068 163.877547,47.1595492 C163.816492,47.2963413 163.785811,47.4415274 163.785811,47.5972838 C163.785811,47.8394679 163.858218,48.041858 164.004566,48.2053867 C164.150607,48.3689154 164.34267,48.5131689 164.580754,48.6372144 C164.819452,48.7621926 165.090058,48.8790877 165.393799,48.9875886 C165.697541,49.0970223 166.005271,49.2160936 166.316989,49.3451134 C166.62748,49.4728896 166.93521,49.6227391 167.238952,49.7940401 C167.542693,49.9656519 167.813299,50.176747 168.051997,50.4254598 C168.290081,50.6751053 168.482144,50.9723172 168.628185,51.3192716 C168.774533,51.6656043 168.848168,52.077224 168.848168,52.5516438" id="Fill-23" fill="#FFFFFF"></path>
                <path d="M219.895288,52.5516438 C219.895288,53.1442022 219.78545,53.6658774 219.566695,54.1182239 C219.346713,54.5693268 219.037142,54.9470595 218.637676,55.2511109 C218.238517,55.5551624 217.765416,55.7827346 217.219602,55.9344495 C216.673174,56.0867861 216.081646,56.1632653 215.443482,56.1632653 C215.059356,56.1632653 214.692412,56.1331089 214.342649,56.0749722 C213.992273,56.0168356 213.679634,55.9422218 213.402585,55.8533069 C213.125536,55.7634594 212.895122,55.6723683 212.71073,55.5781683 C212.52603,55.4855228 212.391648,55.3972297 212.307582,55.3160872 C212.222289,55.233701 212.157245,55.1046812 212.11061,54.9296496 C212.064896,54.754307 212.041885,54.4959565 212.041885,54.1530437 C212.041885,53.9276477 212.049555,53.7454655 212.064896,53.609917 C212.079929,53.4734358 212.103247,53.3640022 212.134541,53.2828596 C212.165222,53.2004735 212.203573,53.1460675 212.249288,53.11902 C212.295923,53.0919725 212.353296,53.0773606 212.422329,53.0773606 C212.507315,53.0773606 212.631266,53.1267923 212.796636,53.2237903 C212.962007,53.3214101 213.168489,53.4289784 213.413937,53.5449408 C213.660612,53.6621467 213.945945,53.7715803 214.273004,53.8723091 C214.599756,53.9739704 214.970382,54.0243348 215.386109,54.0243348 C215.646897,54.0243348 215.880072,53.9972873 216.083487,53.9431922 C216.287208,53.8878536 216.46393,53.8104417 216.61396,53.7087804 C216.76399,53.6080516 216.877816,53.4790319 216.954212,53.3232754 C217.031528,53.167519 217.069879,52.9884458 217.069879,52.7860557 C217.069879,52.5516438 216.998086,52.3511191 216.856647,52.1835488 C216.714287,52.0162894 216.526213,51.8701706 216.29089,51.7461251 C216.056794,51.6211469 215.791404,51.5039409 215.495946,51.3957508 C215.199568,51.2863172 214.895827,51.1653806 214.584415,51.0326301 C214.273004,50.9008123 213.969262,50.7487865 213.674111,50.5774855 C213.377733,50.4061846 213.112036,50.1960222 212.877941,49.9463767 C212.642925,49.6973529 212.454544,49.3973431 212.313104,49.0466579 C212.170745,48.6962837 212.099258,48.2750263 212.099258,47.7841293 C212.099258,47.2863927 212.195596,46.8284502 212.387659,46.4112344 C212.579722,45.9949513 212.857078,45.6386701 213.217886,45.3423909 C213.579307,45.0461117 214.019886,44.8166741 214.538701,44.6528345 C215.057209,44.4893058 215.639226,44.4081633 216.28506,44.4081633 C216.608131,44.4081633 216.92169,44.4311692 217.225432,44.4778029 C217.529173,44.5241256 217.803767,44.5831949 218.050136,44.6528345 C218.295583,44.7224741 218.502986,44.7989533 218.672345,44.8804068 C218.84109,44.9627929 218.962587,45.0324325 219.036221,45.0915018 C219.108935,45.1496385 219.160172,45.2077751 219.190853,45.2668444 C219.222455,45.324981 219.245465,45.3946206 219.260806,45.4770067 C219.27584,45.5581493 219.289339,45.6601216 219.300998,45.7810582 C219.31235,45.9019948 219.317872,46.0509117 219.317872,46.2302958 C219.317872,46.4413908 219.31235,46.6126918 219.300998,46.7441987 C219.289339,46.8769492 219.270317,46.9823413 219.243625,47.0597532 C219.216625,47.1384086 219.179501,47.1906383 219.133787,47.2176858 C219.087765,47.2450442 219.033153,47.2584125 218.972098,47.2584125 C218.903373,47.2584125 218.795376,47.2176858 218.649028,47.1365432 C218.502986,47.0541571 218.320435,46.9671076 218.10168,46.8729076 C217.882618,46.7802621 217.628579,46.691969 217.340178,46.6108265 C217.052391,46.5284403 216.723798,46.4877136 216.355013,46.4877136 C216.092998,46.4877136 215.866572,46.5147611 215.674509,46.5691671 C215.481526,46.6241948 215.324133,46.7016066 215.201716,46.803268 C215.078379,46.9039967 214.985722,47.023068 214.924667,47.1595492 C214.863612,47.2963413 214.832931,47.4415274 214.832931,47.5972838 C214.832931,47.8394679 214.905338,48.041858 215.051686,48.2053867 C215.197727,48.3689154 215.38979,48.5131689 215.627874,48.6372144 C215.866572,48.7621926 216.137178,48.8790877 216.44092,48.9875886 C216.744661,49.0970223 217.052391,49.2160936 217.364109,49.3451134 C217.674601,49.4728896 217.982331,49.6227391 218.286072,49.7940401 C218.589813,49.9656519 218.860419,50.176747 219.099117,50.4254598 C219.337201,50.6751053 219.529264,50.9723172 219.675306,51.3192716 C219.821654,51.6656043 219.895288,52.077224 219.895288,52.5516438" id="Fill-23" fill="#FFFFFF"></path>
                <path d="M178.010471,54.4929712 C178.010471,54.838301 177.987953,55.1022294 177.941262,55.2866349 C177.895895,55.4710403 177.83629,55.6006564 177.760789,55.6757962 C177.686613,55.7496836 177.576342,55.816057 177.431963,55.8755427 C177.28626,55.9340891 177.116383,55.9848084 176.92134,56.0286399 C176.726627,56.0715322 176.515026,56.1047189 176.286206,56.1282001 C176.058048,56.1513682 175.828234,56.1632653 175.596103,56.1632653 C174.973222,56.1632653 174.433788,56.0890648 173.978135,55.9400376 C173.521157,55.7906974 173.143984,55.5615211 172.84463,55.2515696 C172.546601,54.9416182 172.326059,54.5515176 172.185654,54.0806418 C172.044256,53.609453 171.974053,53.0527926 171.974053,52.4103477 L171.974053,47.0319068 L170.641862,47.0319068 C170.483907,47.0319068 170.364364,46.9401737 170.280916,46.7560813 C170.198461,46.5716758 170.157068,46.2636028 170.157068,45.8315493 C170.157068,45.6045646 170.167334,45.4123321 170.188196,45.2554778 C170.208726,45.0983105 170.239523,44.974643 170.280916,44.8851015 C170.322309,44.7939945 170.374629,44.7298126 170.436884,44.6906774 C170.498477,44.6509159 170.57166,44.6311917 170.654115,44.6311917 L171.974053,44.6311917 L171.974053,42.2902753 C171.974053,42.2113786 171.997233,42.1412481 172.0426,42.0776924 C172.087636,42.0153891 172.171415,41.9627912 172.290958,41.9186466 C172.411825,41.8760674 172.573423,41.8447592 172.776746,41.8253481 C172.980068,41.8056239 173.231406,41.7959184 173.529766,41.7959184 C173.836736,41.7959184 174.091717,41.8056239 174.294708,41.8253481 C174.49803,41.8447592 174.657642,41.8760674 174.774535,41.9186466 C174.890767,41.9627912 174.973222,42.0153891 175.022893,42.0776924 C175.073558,42.1412481 175.098063,42.2113786 175.098063,42.2902753 L175.098063,44.6311917 L177.512431,44.6311917 C177.594886,44.6311917 177.668069,44.6509159 177.729993,44.6906774 C177.79291,44.7298126 177.844568,44.7939945 177.88563,44.8851015 C177.927023,44.974643 177.957819,45.0983105 177.979344,45.2554778 C178.000206,45.4123321 178.010471,45.6045646 178.010471,45.8315493 C178.010471,46.2636028 177.968085,46.5716758 177.88563,46.7560813 C177.803175,46.9401737 177.682639,47.0319068 177.524683,47.0319068 L175.098063,47.0319068 L175.098063,51.96264 C175.098063,52.5352676 175.193101,52.9651296 175.38384,53.2506606 C175.57491,53.537444 175.914994,53.6808357 176.404756,53.6808357 C176.570659,53.6808357 176.720335,53.6670601 176.852462,53.6398219 C176.98525,53.6122707 177.104131,53.5803363 177.207117,53.5452711 C177.311427,53.5102059 177.397855,53.4788976 177.469051,53.4516595 C177.539254,53.423169 177.604158,53.4097064 177.661777,53.4097064 C177.711448,53.4097064 177.758802,53.423169 177.805162,53.4516595 C177.85086,53.4788976 177.88563,53.533687 177.910466,53.6163408 C177.93497,53.6983683 177.957819,53.8104518 177.979344,53.9510257 C178.000206,54.0922259 178.010471,54.2725613 178.010471,54.4929712" id="Fill-25" fill="#FFFFFF"></path>
                <path d="M186.873586,49.1399253 C186.898075,48.3148204 186.727928,47.6663016 186.365371,47.1946799 C186.003133,46.723369 185.443396,46.4880245 184.68648,46.4880245 C184.304206,46.4880245 183.971544,46.5576641 183.688178,46.6981868 C183.405129,46.8383987 183.170103,47.0271096 182.983101,47.2643195 C182.79578,47.502462 182.652347,47.7835076 182.553121,48.1059016 C182.453259,48.4292283 182.395695,48.7740065 182.379794,49.1399253 L186.873586,49.1399253 Z M189.790576,49.9811965 C189.790576,50.339343 189.70916,50.604844 189.545691,50.7761449 C189.382541,50.9474459 189.156738,51.0326301 188.870191,51.0326301 L182.379794,51.0326301 C182.379794,51.4772043 182.433223,51.8798082 182.541354,52.242929 C182.648213,52.6051171 182.819632,52.9128992 183.05434,53.1656537 C183.290001,53.4193408 183.593404,53.6120932 183.963593,53.743911 C184.334101,53.8763506 184.777755,53.9431922 185.295829,53.9431922 C185.821536,53.9431922 186.283955,53.9055744 186.682131,53.8318932 C187.081261,53.758212 187.425054,53.6758259 187.716371,53.5859784 C188.00737,53.4967526 188.248121,53.4152992 188.439576,53.3409962 C188.630395,53.267315 188.786231,53.2296972 188.906129,53.2296972 C188.97705,53.2296972 189.037794,53.2443091 189.085181,53.2713566 C189.132886,53.2984041 189.173276,53.3469032 189.205079,53.4165428 C189.236882,53.487115 189.258508,53.5859784 189.270276,53.7146873 C189.282361,53.8433962 189.288403,54.0050595 189.288403,54.1996773 C189.288403,54.3712892 189.284269,54.517408 189.276318,54.6383446 C189.268367,54.7583486 189.2566,54.8618753 189.240699,54.9473704 C189.225115,55.0334872 189.200945,55.1049921 189.169459,55.1640614 C189.136702,55.2221981 189.09504,55.279402 189.043519,55.3334971 C188.991043,55.387903 188.850473,55.4612733 188.618628,55.5551624 C188.388055,55.6490515 188.092603,55.7401426 187.734181,55.830301 C187.375759,55.9192158 186.965498,55.9978713 186.503079,56.0637802 C186.041614,56.1293782 185.547393,56.1632653 185.021368,56.1632653 C184.07236,56.1632653 183.241343,56.0460594 182.528315,55.8128911 C181.815287,55.5784792 181.219931,55.2240634 180.741611,54.748711 C180.263291,54.2742912 179.906777,53.6739606 179.671751,52.9498953 C179.437044,52.2245864 179.319372,51.3764756 179.319372,50.4024539 C179.319372,49.4747549 179.443086,48.6403233 179.689561,47.8957392 C179.936354,47.1520878 180.29573,46.5209789 180.765463,46.0027235 C181.235833,45.484779 181.807336,45.0899474 182.48061,44.8166741 C183.15452,44.5437118 183.913026,44.4081633 184.758037,44.4081633 C185.650117,44.4081633 186.41403,44.5359395 187.046914,44.7936682 C187.680752,45.0501533 188.200734,45.4064345 188.606861,45.8625117 C189.013624,46.3185889 189.311938,46.857674 189.503393,47.4813214 C189.695166,48.1037253 189.790576,48.7817788 189.790576,49.514549 L189.790576,49.9811965 Z" id="Fill-27" fill="#FFFFFF"></path>
                <path d="M209.424084,55.6885577 C209.424084,55.7673066 209.400155,55.8372003 209.351341,55.8963411 C209.303803,55.9554819 209.224361,56.0054511 209.112056,56.0449837 C208.999752,56.0845163 208.848524,56.1139286 208.657096,56.1335368 C208.464073,56.1534612 208.220959,56.1632653 207.924884,56.1632653 C207.620833,56.1632653 207.373253,56.1534612 207.181506,56.1335368 C206.989759,56.1139286 206.83566,56.0845163 206.719208,56.0449837 C206.604032,56.0054511 206.523632,55.9554819 206.479923,55.8963411 C206.436213,55.8372003 206.414199,55.7673066 206.414199,55.6885577 L206.414199,49.3997093 C206.414199,49.042967 206.379742,48.7191158 206.312104,48.4256257 C206.244466,48.1318193 206.140138,47.8810244 206.000077,47.6700784 C205.860015,47.4600811 205.683902,47.2978393 205.472374,47.1833528 C205.260846,47.0682338 205.007523,47.0113069 204.711448,47.0113069 C204.351883,47.0113069 203.98817,47.1491966 203.620628,47.4268737 C203.252767,47.7045508 202.852045,48.108416 202.421013,48.6391018 L202.421013,55.6885577 C202.421013,55.7673066 202.397404,55.8372003 202.34859,55.8963411 C202.300733,55.9554819 202.219376,56.0054511 202.103243,56.0449837 C201.986791,56.0845163 201.833968,56.1139286 201.640944,56.1335368 C201.449198,56.1534612 201.209913,56.1632653 200.921814,56.1632653 C200.626696,56.1632653 200.381987,56.1534612 200.190559,56.1335368 C199.998493,56.1139286 199.844713,56.0845163 199.728261,56.0449837 C199.613085,56.0054511 199.530452,55.9554819 199.482914,55.8963411 C199.435057,55.8372003 199.411448,55.7673066 199.411448,55.6885577 L199.411448,49.3997093 C199.411448,49.042967 199.376671,48.7191158 199.309034,48.4256257 C199.241396,48.1318193 199.139301,47.8810244 199.003068,47.6700784 C198.866835,47.4600811 198.691998,47.2978393 198.475684,47.1833528 C198.260009,47.0682338 198.0086,47.0113069 197.720182,47.0113069 C197.352641,47.0113069 196.985099,47.1491966 196.617238,47.4268737 C196.249697,47.7045508 195.853441,48.108416 195.430066,48.6391018 L195.430066,55.6885577 C195.430066,55.7673066 195.405819,55.8372003 195.357324,55.8963411 C195.309786,55.9554819 195.228429,56.0054511 195.112296,56.0449837 C194.995525,56.0845163 194.842702,56.1139286 194.649998,56.1335368 C194.458251,56.1534612 194.214818,56.1632653 193.918424,56.1632653 C193.623625,56.1632653 193.379235,56.1534612 193.187169,56.1335368 C192.995742,56.1139286 192.841323,56.0845163 192.72519,56.0449837 C192.610014,56.0054511 192.5277,55.9554819 192.480162,55.8963411 C192.432305,55.8372003 192.408377,55.7673066 192.408377,55.6885577 L192.408377,45.0855942 C192.408377,45.0058964 192.428158,44.9369515 192.468039,44.8768619 C192.507919,44.8177212 192.580343,44.7683845 192.683395,44.7279031 C192.787723,44.6886867 192.922042,44.6589582 193.086032,44.63935 C193.249064,44.6197418 193.455488,44.6099377 193.703068,44.6099377 C193.958305,44.6099377 194.17079,44.6197418 194.338927,44.63935 C194.506746,44.6589582 194.63596,44.6886867 194.728483,44.7279031 C194.820049,44.7683845 194.88673,44.8177212 194.926292,44.8768619 C194.966173,44.9369515 194.985954,45.0058964 194.985954,45.0855942 L194.985954,46.3098402 C195.578104,45.6754208 196.167064,45.1997643 196.754428,44.8828709 C197.34275,44.56661 197.955957,44.4081633 198.595646,44.4081633 C199.034973,44.4081633 199.431228,44.4533886 199.782818,44.5438392 C200.134726,44.6355549 200.448668,44.7664869 200.723686,44.9369515 C201.000299,45.1070999 201.23767,45.3110882 201.437393,45.5482839 C201.637116,45.7867446 201.804934,46.0517713 201.941167,46.3452614 C202.261171,46.0046484 202.575113,45.7111582 202.882992,45.4657398 C203.190234,45.2193725 203.494286,45.0194956 203.794189,44.864844 C204.093455,44.7105087 204.393359,44.5960223 204.693581,44.5204359 C204.993485,44.4454821 205.298494,44.4081633 205.610521,44.4081633 C206.321995,44.4081633 206.922121,44.5261286 207.409305,44.7642731 C207.896808,45.001785 208.290193,45.3250037 208.590415,45.732664 C208.890319,46.1415894 209.10408,46.6181946 209.232018,47.1656422 C209.359636,47.7124573 209.424084,48.2905823 209.424084,48.9012821 L209.424084,55.6885577 Z" id="Fill-29" fill="#FFFFFF"></path>
                <path d="M34.4780621,43.6825274 L43.7754462,34.4051095 C44.7450083,33.437595 44.7450083,31.8688583 43.7754462,30.9013439 L34.4780621,21.623595 C33.5085,20.6560806 31.9364433,20.6560806 30.9668812,21.623595 L21.6698286,30.9013439 C20.699935,31.8688583 20.699935,33.437595 21.6698286,34.4051095 L30.9668812,43.6825274 C31.9364433,44.6500419 33.5085,44.6500419 34.4780621,43.6825274" id="Fill-31" fill="#FFE100"></path>
                <g id="Group-35">
                    <mask id="mask-2" fill="white">
                        <use xlink:href="#path-1"></use>
                    </mask>
                    <g id="Clip-34"></g>
                    <path d="M1.05974701,29.1239354 L29.1506439,1.30350831 C30.5640081,-0.0966360248 32.8557305,-0.0966360248 34.2687698,1.30350831 L43.1920319,10.1429854 C44.6053961,11.5431297 44.6053961,13.8137384 43.1920319,15.213561 C41.7789926,16.6140271 39.4869454,16.6140271 38.0732564,15.213561 L34.2687698,11.4523826 C32.8557305,10.0445151 30.5640081,10.0522383 29.1506439,11.4523826 L11.2969733,29.1239354 C9.88360913,30.5314811 9.88360913,32.8020898 11.2969733,34.2019123 L15.1017847,37.9711356 C16.5144992,39.3709582 16.5144992,41.6415669 15.1017847,43.0417112 C14.3907173,43.7454841 13.4665571,44.0936698 12.5423969,44.0936698 C11.6179119,44.0936698 10.6934268,43.7454841 9.98300913,43.0417112 L1.05974701,34.2019123 C-0.353292315,32.8020898 -0.353292315,30.5314811 1.05974701,29.1239354" id="Fill-33" fill="#FFFFFF" mask="url(#mask-2)"></path>
                </g>
                <g id="Group-38" transform="translate(19.633508, 19.591837)" fill="#FFFFFF">
                    <path d="M1.40979968,29.3387555 L1.41743493,29.3387555 C2.86182563,27.9283911 5.20418848,27.9283911 6.64824721,29.3387555 L10.5362509,33.1351672 C11.9809735,34.5455316 14.3226724,34.5455316 15.7670631,33.1273877 L34.0050269,15.3268455 C35.4490857,13.9168052 35.4490857,11.6296228 34.0050269,10.211803 L30.1170233,6.4231708 C28.6726326,5.0050269 28.6726326,2.71816857 30.1170233,1.3078042 C30.835401,0.60634971 31.7878158,0.248167079 32.7322634,0.248167079 C33.677043,0.248167079 34.6294578,0.60634971 35.3478356,1.3078042 L44.4666515,10.211803 C45.9110422,11.6296228 45.9110422,13.9168052 44.4666515,15.3268455 L15.7670631,43.3506655 C14.3226724,44.7607057 11.9809735,44.7607057 10.5362509,43.3506655 L1.40979968,34.4463426 C-0.0349229835,33.0359782 -0.0349229835,30.7491199 1.40979968,29.3387555" id="Fill-36"></path>
                </g>
                <polygon id="Fill-39" fill="#FFFFFF" points="81.1518325 62.6938776 82.460733 62.6938776 82.460733 0 81.1518325 0"></polygon>
            </g>
        </g>
    </g>
</svg>