<?xml version="1.0" encoding="UTF-8"?>
<svg width="389px" height="156px" viewBox="0 0 389 156" version="1.1" xmlns="http://www.w3.org/2000/svg" xmlns:xlink="http://www.w3.org/1999/xlink">
    <!-- Generator: sketchtool 51.3 (57544) - http://www.bohemiancoding.com/sketch -->
    <title>9EC92000-DD84-44B7-A62E-A8F6537881AA</title>
    <desc>Created with sketchtool.</desc>
    <defs></defs>
    <g id="Page-1" stroke="none" stroke-width="1" fill="none" fill-rule="evenodd">
        <g id="Homepage" transform="translate(-526.000000, -5190.000000)" fill="#DF3C7B">
            <g id="pins" transform="translate(526.000000, 5190.000000)">
                <path d="M150.282091,106.827903 C162.241346,118.821576 188.658257,143.282583 188.658257,143.282583 C191.827085,146.231367 196.961171,146.261914 200.13,143.313131 C200.13,143.313131 226.12063,119.280022 238.536976,106.827942 C262.897367,82.3974426 262.897367,42.7644229 238.536976,18.3343149 C214.161376,-6.11143831 174.657302,-6.11143831 150.281701,18.3343149 C125.9061,42.764814 125.9061,82.3978337 150.281701,106.827942 L150.282091,106.827903 Z M194.415579,86.0490123 C207.334647,86.0490123 217.816156,75.5373384 217.816156,62.5810892 C217.816156,49.62484 207.334647,39.1131661 194.415579,39.1131661 C181.49651,39.1131661 171.015002,49.62484 171.015002,62.5810892 C171.015002,75.5373384 181.49651,86.0490123 194.415579,86.0490123 Z" id="Fill-1-Copy-6"></path>
                <path d="M13.3820566,127.19549 C22.1359473,135.974574 41.4724995,153.879451 41.4724995,153.879451 C43.7920065,156.03789 47.550036,156.06025 49.869543,153.901811 C49.869543,153.901811 68.894068,136.310145 77.9825387,127.195518 C95.8137665,109.312973 95.8137665,80.3025428 77.9825387,62.4202835 C60.1401772,44.5265722 31.2241325,44.5265722 13.3817711,62.4202835 C-4.46059036,80.3028291 -4.46059036,109.313259 13.3817711,127.195518 L13.3820566,127.19549 Z M45.6867225,111.985835 C55.1431741,111.985835 62.8153895,104.291539 62.8153895,94.8078722 C62.8153895,85.3242053 55.1431741,77.6299094 45.6867225,77.6299094 C36.2302709,77.6299094 28.5580555,85.3242053 28.5580555,94.8078722 C28.5580555,104.291539 36.2302709,111.985835 45.6867225,111.985835 Z" id="Fill-1-Copy-7"></path>
                <path d="M310.382057,127.19549 C319.135947,135.974574 338.472499,153.879451 338.472499,153.879451 C340.792006,156.03789 344.550036,156.06025 346.869543,153.901811 C346.869543,153.901811 365.894068,136.310145 374.982539,127.195518 C392.813766,109.312973 392.813766,80.3025428 374.982539,62.4202835 C357.140177,44.5265722 328.224133,44.5265722 310.381771,62.4202835 C292.53941,80.3028291 292.53941,109.313259 310.381771,127.195518 L310.382057,127.19549 Z M342.686723,111.985835 C352.143174,111.985835 359.81539,104.291539 359.81539,94.8078722 C359.81539,85.3242053 352.143174,77.6299094 342.686723,77.6299094 C333.230271,77.6299094 325.558056,85.3242053 325.558056,94.8078722 C325.558056,104.291539 333.230271,111.985835 342.686723,111.985835 Z" id="Fill-1-Copy-8"></path>
            </g>
        </g>
    </g>
</svg>